<svg xmlns="http://www.w3.org/2000/svg"
     width="40" height="40" viewBox="0 0 920.000000 920.000000"
     preserveAspectRatio="xMidYMid meet">
    <defs>
        <linearGradient id="gradient" x1="0%" y1="100%" x2="0%" y2="0%">
            <stop offset="0%" style="stop-color:#736efe"/>
            <stop offset="14%" style="stop-color:#008dff"/>
            <stop offset="29%" style="stop-color:#00a6ff"/>
            <stop offset="43%" style="stop-color:#00bcff"/>
            <stop offset="57%" style="stop-color:#00cfff"/>
            <stop offset="71%" style="stop-color:#00e0ff"/>
            <stop offset="86%" style="stop-color:#00eff5"/>
            <stop offset="100%" style="stop-color:#5efce8"/>
        </linearGradient>

    </defs>
    <g transform="translate(875.000000,45.000000) scale(-0.090000,-0.090000) rotate(-90)"
       fill="url(#gradient)" stroke="none">
        <path d="M4417 8840 c-507 -58 -962 -378 -1191 -835 -200 -398 -216 -845 -46
-1262 44 -107 127 -252 190 -331 22 -28 40 -54 40 -56 0 -3 -212 -259 -471
-568 -260 -310 -473 -564 -474 -566 -1 -1 -36 11 -78 28 -150 60 -234 75 -422
74 -150 -1 -182 -4 -268 -27 -236 -63 -452 -203 -603 -392 -83 -103 -175 -287
-211 -420 -24 -90 -27 -117 -27 -275 0 -157 3 -185 26 -271 36 -134 78 -229
149 -339 70 -109 222 -265 311 -320 31 -19 57 -39 58 -45 0 -5 -102 -292 -227
-636 l-227 -626 -116 -6 c-139 -7 -206 -24 -325 -82 -210 -102 -360 -285 -427
-520 -18 -64 -22 -105 -22 -205 0 -152 18 -230 79 -355 212 -435 759 -586
1167 -323 35 22 95 73 134 113 321 325 307 853 -32 1164 -37 33 -71 61 -75 61
-5 0 -9 6 -9 13 0 6 102 295 227 640 l228 628 50 -7 c65 -9 227 -9 290 0 l51
7 230 -635 231 -636 -52 -39 c-92 -70 -188 -197 -239 -319 -134 -319 -40 -711
223 -929 429 -356 1069 -195 1275 321 135 337 16 741 -279 951 -137 98 -267
142 -450 153 l-109 7 -228 625 c-125 344 -228 628 -228 632 0 3 35 31 78 61
144 101 278 258 358 418 167 333 151 750 -41 1067 -44 72 -51 90 -41 102 210
256 941 1120 945 1117 128 -71 329 -144 481 -173 129 -24 399 -25 525 -1 130
25 296 80 400 131 84 42 91 44 107 28 9 -9 235 -278 502 -596 l485 -579 -28
-41 c-73 -106 -140 -273 -167 -413 -23 -122 -15 -365 16 -478 27 -103 77 -217
137 -319 54 -91 236 -282 315 -332 27 -16 48 -34 48 -39 0 -6 -98 -280 -218
-610 l-218 -600 -110 -6 c-316 -19 -563 -179 -703 -456 -58 -117 -76 -201 -76
-363 1 -137 2 -150 33 -239 47 -136 101 -222 201 -321 117 -115 219 -173 382
-217 98 -26 291 -24 394 5 233 67 407 209 511 417 62 126 86 224 86 360 1 144
-20 235 -81 360 -56 112 -132 211 -215 274 -51 40 -54 44 -45 69 6 15 100 274
210 576 110 302 206 563 213 581 l14 33 53 -10 c48 -9 323 -6 358 3 9 3 75
-166 232 -596 120 -330 219 -606 219 -612 0 -7 -4 -13 -9 -13 -17 0 -143 -125
-185 -184 -109 -154 -150 -282 -150 -471 -1 -137 11 -199 58 -317 93 -231 300
-409 551 -474 105 -27 295 -25 400 4 505 143 746 681 514 1147 -134 271 -417
444 -724 445 l-80 0 -199 548 c-110 301 -210 575 -222 609 l-23 62 64 46 c213
152 373 384 442 641 24 89 26 116 26 274 0 158 -2 185 -26 274 -100 375 -376
670 -737 790 -140 46 -242 60 -403 53 -143 -5 -247 -27 -369 -78 -39 -16 -72
-28 -73 -27 -1 2 -226 270 -499 597 -443 529 -495 595 -484 611 175 240 261
426 310 673 31 157 31 415 -1 567 -65 311 -205 572 -421 789 -220 221 -512
374 -815 426 -111 19 -324 27 -428 15z"/>
    </g>
</svg>
